<?xml version="1.0" standalone="no"?>
<!DOCTYPE svg PUBLIC "-//W3C//DTD SVG 20010904//EN"
 "http://www.w3.org/TR/2001/REC-SVG-20010904/DTD/svg10.dtd">
<svg version="1.0" xmlns="http://www.w3.org/2000/svg"
 width="225.000000pt" height="225.000000pt" viewBox="0 0 225.000000 225.000000"
 preserveAspectRatio="xMidYMid meet">

<g transform="translate(0.000000,225.000000) scale(0.100000,-0.100000)"
fill="#000000" stroke="none">
<path d="M1490 1393 c-173 -157 -378 -342 -455 -412 -77 -69 -188 -170 -247
-224 l-108 -97 363 0 363 0 69 70 69 70 -251 2 -250 3 321 366 c176 201 350
398 385 437 34 40 61 72 60 72 -2 -1 -146 -129 -319 -287z"/>
<path d="M775 1520 l-69 -70 253 0 253 0 -99 -112 c-99 -115 -516 -590 -581
-663 -104 -117 -101 -113 -52 -69 25 23 140 126 255 230 116 104 287 258 380
343 94 85 210 191 260 235 49 45 112 102 140 128 l50 48 -360 0 -361 0 -69
-70z"/>
</g>
</svg>
